0
SECTION
  2
ENTITIES
  0
POLYLINE
  8

  0
VERTEX
  8
0
 10
-23.71875
 20
15.72187
 30
0.00000
 70
    32
  0
VERTEX
  8
0
 10
-23.59063
 20
17.72187
 30
0.00000
 70
    32
  0
VERTEX
  8
0
 10
-23.48438
 20
19.72187
 30
0.00000
 70
    32
  0
VERTEX
  8
0
 10
-23.38750
 20
21.72187
 30
0.00000
 70
    32
  0
VERTEX
  8
0
 10
-23.29375
 20
23.72187
 30
0.00000
 70
    32
  0
VERTEX
  8
0
 10
-23.20938
 20
25.72187
 30
0.00000
 70
    32
  0
VERTEX
  8
0
 10
-23.11563
 20
27.72187
 30
0.00000
 70
    32
  0
VERTEX
  8
0
 10
-23.04062
 20
29.72187
 30
0.00000
 70
    32
  0
VERTEX
  8
0
 10
-22.96563
 20
31.72187
 30
0.00000
 70
    32
  0
VERTEX
  8
0
 10
-22.89375
 20
33.72187
 30
0.00000
 70
    32
  0
VERTEX
  8
0
 10
-22.82813
 20
35.72187
 30
0.00000
 70
    32
  0
VERTEX
  8
0
 10
-22.76250
 20
37.72187
 30
0.00000
 70
    32
  0
VERTEX
  8
0
 10
-22.70313
 20
39.72187
 30
0.00000
 70
    32
  0
VERTEX
  8
0
 10
-22.65000
 20
41.72187
 30
0.00000
 70
    32
  0
VERTEX
  8
0
 10
-22.60312
 20
43.72187
 30
0.00000
 70
    32
  0
VERTEX
  8
0
 10
-22.56250
 20
45.72187
 30
0.00000
 70
    32
  0
VERTEX
  8
0
 10
-22.51875
 20
47.72187
 30
0.00000
 70
    32
  0
VERTEX
  8
0
 10
-22.48750
 20
49.72187
 30
0.00000
 70
    32
  0
VERTEX
  8
0
 10
-22.45625
 20
51.72187
 30
0.00000
 70
    32
  0
VERTEX
  8
0
 10
-22.43750
 20
53.72187
 30
0.00000
 70
    32
  0
VERTEX
  8
0
 10
-22.42188
 20
55.72187
 30
0.00000
 70
    32
  0
VERTEX
  8
0
 10
-22.40625
 20
57.72187
 30
0.00000
 70
    32
  0
VERTEX
  8
0
 10
-22.39688
 20
59.72187
 30
0.00000
 70
    32
  0
VERTEX
  8
0
 10
-22.40000
 20
61.72187
 30
0.00000
 70
    32
  0
VERTEX
  8
0
 10
-22.40625
 20
63.72187
 30
0.00000
 70
    32
  0
VERTEX
  8
0
 10
-22.40937
 20
65.72187
 30
0.00000
 70
    32
  0
VERTEX
  8
0
 10
-22.42188
 20
67.72187
 30
0.00000
 70
    32
  0
VERTEX
  8
0
 10
-22.44375
 20
69.72187
 30
0.00000
 70
    32
  0
VERTEX
  8
0
 10
-22.46250
 20
71.72187
 30
0.00000
 70
    32
  0
VERTEX
  8
0
 10
-22.49063
 20
73.72187
 30
0.00000
 70
    32
  0
VERTEX
  8
0
 10
-22.52500
 20
75.72187
 30
0.00000
 70
    32
  0
VERTEX
  8
0
 10
-22.56250
 20
77.72187
 30
0.00000
 70
    32
  0
VERTEX
  8
0
 10
-22.60312
 20
79.72187
 30
0.00000
 70
    32
  0
VERTEX
  8
0
 10
-22.65625
 20
81.72187
 30
0.00000
 70
    32
  0
VERTEX
  8
0
 10
-22.70625
 20
83.72187
 30
0.00000
 70
    32
  0
VERTEX
  8
0
 10
-22.76250
 20
85.72187
 30
0.00000
 70
    32
  0
VERTEX
  8
0
 10
-22.82500
 20
87.72187
 30
0.00000
 70
    32
  0
VERTEX
  8
0
 10
-22.89375
 20
89.72187
 30
0.00000
 70
    32
  0
VERTEX
  8
0
 10
-22.96563
 20
91.72187
 30
0.00000
 70
    32
  0
VERTEX
  8
0
 10
-23.04688
 20
93.72187
 30
0.00000
 70
    32
  0
VERTEX
  8
0
 10
-23.13437
 20
95.72187
 30
0.00000
 70
    32
  0
VERTEX
  8
0
 10
-23.22500
 20
97.72187
 30
0.00000
 70
    32
  0
VERTEX
  8
0
 10
-23.32187
 20
99.72187
 30
0.00000
 70
    32
  0
VERTEX
  8
0
 10
-23.41875
 20
101.72187
 30
0.00000
 70
    32
  0
VERTEX
  8
0
 10
-23.53125
 20
103.72187
 30
0.00000
 70
    32
  0
VERTEX
  8
0
 10
-23.64375
 20
105.72187
 30
0.00000
 70
    32
  0
VERTEX
  8
0
 10
-23.75312
 20
107.72187
 30
0.00000
 70
    32
  0
VERTEX
  8
0
 10
-23.87500
 20
109.72187
 30
0.00000
 70
    32
  0
VERTEX
  8
0
 10
-23.99375
 20
111.72187
 30
0.00000
 70
    32
  0
VERTEX
  8
0
 10
-24.12812
 20
113.72187
 30
0.00000
 70
    32
  0
VERTEX
  8
0
 10
-24.25312
 20
115.72187
 30
0.00000
 70
    32
  0
VERTEX
  8
0
 10
-24.39375
 20
117.72187
 30
0.00000
 70
    32
  0
VERTEX
  8
0
 10
-24.54375
 20
119.72187
 30
0.00000
 70
    32
  0
VERTEX
  8
0
 10
-24.68125
 20
121.72187
 30
0.00000
 70
    32
  0
VERTEX
  8
0
 10
-24.83438
 20
123.72187
 30
0.00000
 70
    32
  0
VERTEX
  8
0
 10
-24.98438
 20
125.72187
 30
0.00000
 70
    32
  0
VERTEX
  8
0
 10
-25.15000
 20
127.72187
 30
0.00000
 70
    32
  0
VERTEX
  8
0
 10
-25.31250
 20
129.72187
 30
0.00000
 70
    32
  0
VERTEX
  8
0
 10
-25.48750
 20
131.72187
 30
0.00000
 70
    32
  0
VERTEX
  8
0
 10
-25.66250
 20
133.72187
 30
0.00000
 70
    32
  0
VERTEX
  8
0
 10
-25.84063
 20
135.72187
 30
0.00000
 70
    32
  0
VERTEX
  8
0
 10
-26.02813
 20
137.72187
 30
0.00000
 70
    32
  0
VERTEX
  8
0
 10
-26.22187
 20
139.72187
 30
0.00000
 70
    32
  0
VERTEX
  8
0
 10
-26.41250
 20
141.72187
 30
0.00000
 70
    32
  0
VERTEX
  8
0
 10
-26.62188
 20
143.72187
 30
0.00000
 70
    32
  0
VERTEX
  8
0
 10
-26.82187
 20
145.72187
 30
0.00000
 70
    32
  0
VERTEX
  8
0
 10
-27.03750
 20
147.72187
 30
0.00000
 70
    32
  0
VERTEX
  8
0
 10
-27.25000
 20
149.72187
 30
0.00000
 70
    32
  0
VERTEX
  8
0
 10
-27.46563
 20
151.72187
 30
0.00000
 70
    32
  0
VERTEX
  8
0
 10
-27.70313
 20
153.72187
 30
0.00000
 70
    32
  0
VERTEX
  8
0
 10
-27.92813
 20
155.72187
 30
0.00000
 70
    32
  0
VERTEX
  8
0
 10
-28.16562
 20
157.72187
 30
0.00000
 70
    32
  0
VERTEX
  8
0
 10
-28.40625
 20
159.72187
 30
0.00000
 70
    32
  0
VERTEX
  8
0
 10
-28.64688
 20
161.72187
 30
0.00000
 70
    32
  0
VERTEX
  8
0
 10
-28.90625
 20
163.72187
 30
0.00000
 70
    32
  0
VERTEX
  8
0
 10
-29.15000
 20
165.72187
 30
0.00000
 70
    32
  0
VERTEX
  8
0
 10
-29.41875
 20
167.72187
 30
0.00000
 70
    32
  0
VERTEX
  8
0
 10
-29.68438
 20
169.72187
 30
0.00000
 70
    32
  0
VERTEX
  8
0
 10
-29.94687
 20
171.72187
 30
0.00000
 70
    32
  0
VERTEX
  8
0
 10
-30.20000
 20
173.72187
 30
0.00000
 70
    32
  0
VERTEX
  8
0
 10
-30.50625
 20
175.72187
 30
0.00000
 70
    32
  0
VERTEX
  8
0
 10
-30.78750
 20
177.72187
 30
0.00000
 70
    32
  0
VERTEX
  8
0
 10
-31.07187
 20
179.72187
 30
0.00000
 70
    32
  0
VERTEX
  8
0
 10
-31.35938
 20
181.72187
 30
0.00000
 70
    32
  0
VERTEX
  8
0
 10
-31.65625
 20
183.72187
 30
0.00000
 70
    32
  0
VERTEX
  8
0
 10
-31.95313
 20
185.72187
 30
0.00000
 70
    32
  0
VERTEX
  8
0
 10
-32.26250
 20
187.72187
 30
0.00000
 70
    32
  0
VERTEX
  8
0
 10
-32.56875
 20
189.72187
 30
0.00000
 70
    32
  0
VERTEX
  8
0
 10
-32.88437
 20
191.72187
 30
0.00000
 70
    32
  0
VERTEX
  8
0
 10
-33.20938
 20
193.72187
 30
0.00000
 70
    32
  0
VERTEX
  8
0
 10
-33.52813
 20
195.72187
 30
0.00000
 70
    32
  0
VERTEX
  8
0
 10
-33.86563
 20
197.72187
 30
0.00000
 70
    32
  0
VERTEX
  8
0
 10
-34.20000
 20
199.72187
 30
0.00000
 70
    32
  0
VERTEX
  8
0
 10
-34.53125
 20
201.72187
 30
0.00000
 70
    32
  0
VERTEX
  8
0
 10
-34.87188
 20
203.72187
 30
0.00000
 70
    32
  0
VERTEX
  8
0
 10
-35.21875
 20
205.72187
 30
0.00000
 70
    32
  0
VERTEX
  8
0
 10
-35.58438
 20
207.72187
 30
0.00000
 70
    32
  0
VERTEX
  8
0
 10
-35.97187
 20
209.72187
 30
0.00000
 70
    32
  0
VERTEX
  8
0
 10
-36.38437
 20
211.72187
 30
0.00000
 70
    32
  0
VERTEX
  8
0
 10
-36.80313
 20
213.72187
 30
0.00000
 70
    32
  0
VERTEX
  8
0
 10
-37.19687
 20
215.72187
 30
0.00000
 70
    32
  0
VERTEX
  8
0
 10
-37.54688
 20
217.72187
 30
0.00000
 70
    32
  0
VERTEX
  8
0
 10
-38.05000
 20
219.72187
 30
0.00000
 70
    32
  0
VERTEX
  8
0
 10
-40.82813
 20
221.72187
 30
0.00000
 70
    32
  0
VERTEX
  8
0
 10
-41.99063
 20
223.72187
 30
0.00000
 70
    32
  0
VERTEX
  8
0
 10
-42.17813
 20
225.72187
 30
0.00000
 70
    32
  0
SEQEND
  0
ENDSEC
  0
EOF
